<?xml version="1.0" encoding="UTF-8"?>
<svg version="1.1" xmlns="http://www.w3.org/2000/svg" width="2048" height="1536">
<path d="M0 0 C675.84 0 1351.68 0 2048 0 C2048 506.88 2048 1013.76 2048 1536 C1372.16 1536 696.32 1536 0 1536 C0 1029.12 0 522.24 0 0 Z " fill="#FEFEFE" transform="translate(0,0)"/>
<path d="M0 0 C3.43826564 -0.00432819 6.87519663 -0.04060757 10.31323242 -0.07861328 C30.52361987 -0.18215604 50.45875865 2.02520547 69.9284668 7.62060547 C71.39799805 8.02279297 71.39799805 8.02279297 72.8972168 8.43310547 C75.20323703 9.06613063 77.50487736 9.71122281 79.8034668 10.37060547 C78.37956297 13.3557304 77.18532446 15.14701312 74.6159668 17.24560547 C64.36958602 25.94007091 54.4831719 35.09598357 45.8034668 45.37060547 C45.12670898 46.15951172 44.44995117 46.94841797 43.75268555 47.76123047 C14.48826569 82.64313494 -6.69560985 122.61737375 -19.1965332 166.37060547 C2.2534668 166.37060547 23.7034668 166.37060547 45.8034668 166.37060547 C47.2884668 161.42060547 47.2884668 161.42060547 48.8034668 156.37060547 C49.60440397 154.39835291 50.45275157 152.4439304 51.36987305 150.52294922 C51.84996826 149.51433838 52.33006348 148.50572754 52.82470703 147.46655273 C53.33332275 146.42426514 53.84193848 145.38197754 54.3659668 144.30810547 C54.89971924 143.20974365 55.43347168 142.11138184 55.98339844 140.97973633 C66.25248575 120.09767949 78.93332278 101.35225704 94.40478516 83.96044922 C96.43661584 81.650922 98.4118406 79.29397187 100.38745117 76.9362793 C102.63452814 74.45170954 105.19919659 72.47618564 107.8034668 70.37060547 C108.5459668 69.62810547 109.2884668 68.88560547 110.0534668 68.12060547 C119.7243563 58.44971597 130.42515783 49.95614478 141.8034668 42.37060547 C146.43456528 42.58434848 149.63253716 45.01551938 153.2409668 47.68310547 C153.85512451 48.13258545 154.46928223 48.58206543 155.10205078 49.04516602 C174.52799611 63.46148418 192.64350244 80.73165993 206.8034668 100.37060547 C207.63124187 101.47080869 208.46069392 102.56975202 209.29174805 103.66748047 C219.01434021 116.67626345 226.7422703 130.83744825 233.8034668 145.43310547 C234.26035889 146.37210693 234.71725098 147.3111084 235.18798828 148.27856445 C235.83296265 149.6409021 235.83296265 149.6409021 236.4909668 151.03076172 C237.05364258 152.21617554 237.05364258 152.21617554 237.62768555 153.42553711 C239.30879085 157.63632891 240.50064015 162.02784996 241.8034668 166.37060547 C263.2534668 166.37060547 284.7034668 166.37060547 306.8034668 166.37060547 C301.3472372 148.86490708 301.3472372 148.86490708 294.9909668 131.74560547 C294.35723145 130.18543701 294.35723145 130.18543701 293.71069336 128.59375 C283.58180522 104.05240761 270.29908619 81.18190298 253.8034668 60.37060547 C252.71098633 58.96101562 252.71098633 58.96101562 251.59643555 57.52294922 C247.58456444 52.40326361 243.33619756 47.54106306 238.9519043 42.73779297 C237.05194839 40.644387 235.20344959 38.51864873 233.3659668 36.37060547 C227.2430758 29.35479287 220.56813897 22.89657982 213.4987793 16.84326172 C211.50343818 15.10998153 209.63354045 13.27693219 207.8034668 11.37060547 C214.20746127 8.25690714 220.80671688 6.81857439 227.7409668 5.30810547 C228.8630957 5.05222656 229.98522461 4.79634766 231.14135742 4.53271484 C247.6878286 0.8776454 263.66794543 -0.03476842 280.5534668 -0.00439453 C281.58683167 -0.00451538 282.62019653 -0.00463623 283.68487549 -0.00476074 C300.41244414 0.02304149 316.37314312 1.05201736 332.8034668 4.37060547 C334.27221602 4.63883891 335.74096594 4.90706849 337.2097168 5.17529297 C401.17969506 17.79870201 457.85619771 59.09473082 493.83374023 112.72460938 C514.26428423 143.80383702 527.44779504 178.55123498 532.8034668 215.37060547 C532.92061035 216.15193848 533.03775391 216.93327148 533.15844727 217.73828125 C537.61787211 248.84823614 536.28991584 283.33543624 526.8034668 313.37060547 C526.3140008 315.10000634 525.82868009 316.83058325 525.34643555 318.56201172 C514.11716843 358.1384137 493.45678138 393.88676002 464.8034668 423.37060547 C464.22338867 423.97646484 463.64331055 424.58232422 463.0456543 425.20654297 C455.04414055 433.54854666 446.83601061 441.18539975 437.54516602 448.06884766 C435.80971862 449.36593281 434.10457104 450.69593068 432.40112305 452.03466797 C397.62799486 478.95344622 354.98505653 493.68526718 311.8034668 499.37060547 C311.0175415 499.47590576 310.23161621 499.58120605 309.421875 499.68969727 C301.51169863 500.61928553 293.56871117 500.57090812 285.6159668 500.55810547 C284.4895578 500.55670059 284.4895578 500.55670059 283.34039307 500.55526733 C257.07549608 500.484526 231.93359747 497.29013609 206.8034668 489.37060547 C207.93848633 488.23751953 207.93848633 488.23751953 209.09643555 487.08154297 C210.58365762 485.59217483 212.0684259 484.10028765 213.54174805 482.59716797 C216.38156432 479.70802486 219.25347298 476.96435032 222.3659668 474.37060547 C270.91905034 432.40418055 302.04457599 367.10784785 313.1159668 304.87060547 C313.24538666 304.14785431 313.37480652 303.42510315 313.50814819 302.68045044 C313.88229429 300.56816094 314.24549741 298.45430976 314.60424805 296.33935547 C314.81218994 295.11667969 315.02013184 293.89400391 315.234375 292.63427734 C315.99884848 286.90679352 316.36029314 281.13186295 316.8034668 275.37060547 C267.6334668 275.37060547 218.4634668 275.37060547 167.8034668 275.37060547 C167.8034668 295.83060547 167.8034668 316.29060547 167.8034668 337.37060547 C191.5634668 337.37060547 215.3234668 337.37060547 239.8034668 337.37060547 C239.04740152 341.9069971 238.46047251 344.61195379 236.65112305 348.60888672 C236.20969971 349.585271 235.76827637 350.56165527 235.31347656 351.56762695 C234.83579834 352.59573486 234.35812012 353.62384277 233.8659668 354.68310547 C233.37088623 355.75181885 232.87580566 356.82053223 232.36572266 357.92163086 C223.0707875 377.67503556 211.07152525 395.83861154 196.8034668 412.37060547 C196.14604492 413.13888672 195.48862305 413.90716797 194.8112793 414.69873047 C184.0537697 426.95823197 172.55836987 438.47932565 159.4230957 448.17431641 C157.81366691 449.36307147 156.22057319 450.57383825 154.62768555 451.78466797 C145.87294237 458.34782643 145.87294237 458.34782643 142.8034668 458.37060547 C140.43707808 457.00201887 138.40041229 455.64063116 136.2409668 453.99560547 C135.62108887 453.53661865 135.00121094 453.07763184 134.36254883 452.60473633 C117.44744787 439.97604113 101.12646871 425.66940289 88.08862305 409.00634766 C87.17861381 407.84809122 86.26118551 406.69564603 85.33862305 405.54736328 C47.8034668 358.81562573 47.8034668 358.81562573 47.8034668 337.37060547 C71.5634668 337.04060547 95.3234668 336.71060547 119.8034668 336.37060547 C119.8034668 316.24060547 119.8034668 296.11060547 119.8034668 275.37060547 C70.6334668 275.37060547 21.4634668 275.37060547 -29.1965332 275.37060547 C-21.38984767 343.0285468 1.519107 407.29089516 48.5456543 457.92919922 C50.47690532 460.01748969 52.3366474 462.14152081 54.1784668 464.30810547 C61.94557002 473.20829199 70.36044348 481.26744634 79.8034668 488.37060547 C69.81722863 495.02809758 54.50282115 496.36790911 42.8034668 498.37060547 C42.09786621 498.49209961 41.39226562 498.61359375 40.6652832 498.73876953 C15.28253288 502.82980699 -12.99190187 501.91846699 -38.1965332 497.37060547 C-39.55464111 497.13712402 -39.55464111 497.13712402 -40.94018555 496.89892578 C-72.84303394 491.26007341 -104.10505309 479.16503696 -131.1965332 461.37060547 C-131.84380371 460.94956543 -132.49107422 460.52852539 -133.15795898 460.09472656 C-142.75494581 453.81068475 -151.61351105 446.9720586 -160.1965332 439.37060547 C-161.0215332 438.65646484 -161.8465332 437.94232422 -162.6965332 437.20654297 C-175.11794306 426.29694945 -186.35714408 414.65091335 -196.1965332 401.37060547 C-196.89004883 400.46052734 -197.58356445 399.55044922 -198.2980957 398.61279297 C-225.38414386 362.46209124 -240.08238967 320.80878126 -246.1965332 276.37060547 C-246.36560181 275.20174805 -246.36560181 275.20174805 -246.53808594 274.00927734 C-248.98007362 255.26934709 -247.7831765 235.03570967 -245.1965332 216.37060547 C-245.07294434 215.46858398 -244.94935547 214.5665625 -244.82202148 213.63720703 C-241.62980384 191.28007543 -235.20568627 170.05130494 -226.1965332 149.37060547 C-225.88103516 148.63793457 -225.56553711 147.90526367 -225.24047852 147.15039062 C-215.09448858 123.82512775 -200.46019251 102.4515258 -183.32543945 83.72216797 C-181.51828724 81.72601084 -179.79296174 79.68984182 -178.0715332 77.62060547 C-143.03754091 37.68506838 -89.31576514 11.09767298 -37.36279297 2.73486328 C-35.81333125 2.47432041 -34.26974095 2.17784883 -32.73144531 1.85791016 C-21.90041999 -0.17671747 -10.98433402 -0.00153961 0 0 Z " fill="#FEFEFE" transform="translate(891.196533203125,740.62939453125)"/>
<path d="M0 0 C1.06799835 0.00054382 2.1359967 0.00108765 3.23635864 0.00164795 C30.00524669 0.06403407 55.1110241 3.69982991 81.0625 10.375 C82.33222656 10.69082031 83.60195313 11.00664063 84.91015625 11.33203125 C100.93457356 15.59612285 117.23954041 21.26728338 131.84887695 29.16308594 C133.92876615 30.28493465 133.92876615 30.28493465 137.0625 31.375 C139.53601103 30.61214338 139.53601103 30.61214338 142.0625 29.375 C142.85116455 29.03903809 143.6398291 28.70307617 144.45239258 28.35693359 C145.69218872 27.82060303 145.69218872 27.82060303 146.95703125 27.2734375 C188.69691768 9.39765259 230.92428657 -0.07741934 276.3125 0 C277.45835571 0.00021149 278.60421143 0.00042297 279.78479004 0.00064087 C297.90549862 0.03396609 315.22269243 1.0402718 333.0625 4.375 C335.01794305 4.69575958 336.973667 5.01481203 338.9296875 5.33203125 C363.50944809 9.6123788 388.72699473 18.27708219 411.0625 29.375 C412.41365263 30.0255915 413.76522362 30.67531477 415.1171875 31.32421875 C442.71947039 44.71633975 468.18602769 61.89820067 490.53417969 82.94824219 C492.13567737 84.44331446 493.75636007 85.91494626 495.3828125 87.3828125 C502.02453296 93.3925836 508.22501641 99.56460247 514.0625 106.375 C514.90039062 107.32503906 515.73828125 108.27507812 516.6015625 109.25390625 C541.48118153 137.71691617 560.07922079 170.97724688 573.0625 206.375 C573.40007324 207.29265137 573.73764648 208.21030273 574.08544922 209.15576172 C591.14035734 256.19581688 595.53716861 308.98429005 588.0625 358.375 C587.90152832 359.46264648 587.74055664 360.55029297 587.57470703 361.67089844 C580.19033545 409.92113426 560.65597753 457.43076567 531.0625 496.375 C530.63114746 496.94379883 530.19979492 497.51259766 529.75537109 498.09863281 C526.59136502 502.24568714 523.34954708 506.32499086 520.0625 510.375 C519.62276855 510.9205957 519.18303711 511.46619141 518.72998047 512.02832031 C506.45714476 527.14932055 492.56547637 541.56098487 477.0625 553.375 C476.0621875 554.19226562 475.061875 555.00953125 474.03125 555.8515625 C459.18867873 567.95427295 443.02039972 578.48651231 426.0625 587.375 C425.42038574 587.71192871 424.77827148 588.04885742 424.11669922 588.39599609 C419.47384156 590.81148232 414.7829808 593.11556681 410.0625 595.375 C409.06307373 595.85984863 409.06307373 595.85984863 408.04345703 596.35449219 C354.98956115 621.88437745 291.98060223 630.34938656 233.83154297 621.78076172 C231.28765679 621.40799335 228.74225477 621.07480415 226.19140625 620.75390625 C198.54033887 617.0792095 163.61993499 609.07995666 140.0625 593.375 C134.14523615 593.58438011 128.97407127 596.51409751 123.6875 598.9375 C96.67910499 610.95657012 68.29436025 618.28519794 39.0625 622.375 C38.24942383 622.49359375 37.43634766 622.6121875 36.59863281 622.734375 C-44.56901168 634.11206734 -127.53787942 608.4341633 -192.5625 560.125 C-198.17851655 555.88959334 -203.44134308 551.40334049 -208.57421875 546.58984375 C-210.58861532 544.70197126 -212.64135875 542.90513714 -214.75 541.125 C-223.76116974 533.28677177 -232.34215542 524.59005575 -239.9375 515.375 C-240.38915527 514.83713867 -240.84081055 514.29927734 -241.30615234 513.74511719 C-249.47297936 504.01081534 -256.97172191 494.00018268 -263.9375 483.375 C-264.35064453 482.75222168 -264.76378906 482.12944336 -265.18945312 481.48779297 C-277.84350739 462.32121236 -287.61636465 441.74128745 -295.9375 420.375 C-296.26588867 419.55032227 -296.59427734 418.72564453 -296.93261719 417.87597656 C-303.12333832 402.18893502 -306.50699525 385.83384682 -309.9375 369.375 C-310.2161792 368.06595703 -310.2161792 368.06595703 -310.50048828 366.73046875 C-314.16405371 349.42419484 -315.3242835 332.08796947 -315.25 314.4375 C-315.24850952 313.55202484 -315.24701904 312.66654968 -315.2454834 311.75424194 C-315.19855286 296.13355391 -314.26181145 280.84118882 -311.9375 265.375 C-311.79828125 264.42254395 -311.6590625 263.47008789 -311.515625 262.48876953 C-305.22100098 220.75045815 -289.50402809 180.93160903 -266.9375 145.375 C-266.24011719 144.27027344 -265.54273438 143.16554688 -264.82421875 142.02734375 C-254.61607456 126.32413229 -242.97053794 110.88643286 -229.44140625 97.87890625 C-227.84940589 96.28690589 -226.43157324 94.61197553 -225 92.875 C-222.30676456 89.67855479 -219.35648678 87.00051793 -216.171875 84.30078125 C-213.71482151 82.18307606 -211.36592067 79.96894681 -209 77.75 C-192.10084898 62.36803796 -172.81464672 49.55072109 -152.9375 38.375 C-152.27202148 37.99633789 -151.60654297 37.61767578 -150.92089844 37.22753906 C-104.88603136 11.19605219 -52.50712265 -0.10150266 0 0 Z M-61.6875 68.5 C-62.86723389 68.8000293 -64.04696777 69.10005859 -65.26245117 69.40917969 C-103.57181244 79.49207818 -140.66659638 98.57145599 -169.45703125 126.01171875 C-171.52021868 127.97743276 -173.61974201 129.80919411 -175.8125 131.625 C-187.75489435 142.05914164 -197.69620216 154.55741497 -206.9375 167.375 C-207.3804541 167.98778809 -207.8234082 168.60057617 -208.27978516 169.23193359 C-225.01810243 192.6707221 -237.18502834 219.16879695 -244.33349609 247.03076172 C-244.89389973 249.2057802 -245.48276431 251.37058524 -246.08203125 253.53515625 C-248.05064566 260.79627674 -249.48479105 268.06786596 -250.625 275.5 C-250.80421997 276.66221069 -250.80421997 276.66221069 -250.98706055 277.84790039 C-259.44812756 336.75677755 -245.5536521 400.11726294 -211.9375 449.375 C-211.52113281 449.98666016 -211.10476563 450.59832031 -210.67578125 451.22851562 C-196.07175638 472.50545647 -178.47887728 492.64375377 -157.9375 508.375 C-156.57818359 509.44234375 -156.57818359 509.44234375 -155.19140625 510.53125 C-133.37499323 527.34498487 -109.06052199 540.60428865 -82.9375 549.375 C-81.72731201 549.78588867 -81.72731201 549.78588867 -80.49267578 550.20507812 C-70.5761956 553.51788897 -60.5533799 556.0301326 -50.3125 558.125 C-49.34860352 558.32375732 -48.38470703 558.52251465 -47.39160156 558.72729492 C-31.97706019 561.72314006 -16.67532529 562.73341019 -1 562.625 C-0.16656067 562.62123352 0.66687866 562.61746704 1.52557373 562.61358643 C26.23375647 562.48289285 50.6167296 559.74848943 74.0625 551.375 C70.43394271 547.69278567 66.69408939 544.17045017 62.875 540.6875 C54.40577824 532.8960559 46.38472266 525.02027154 39.19921875 516.00390625 C37.29324724 513.65889926 35.31206466 511.45662177 33.25 509.25 C-8.02431415 463.08149841 -29.8723769 398.15647716 -34.9375 337.375 C14.2325 337.375 63.4025 337.375 114.0625 337.375 C114.0625 357.505 114.0625 377.635 114.0625 398.375 C90.3025 398.705 66.5425 399.035 42.0625 399.375 C42.87730334 404.26382005 43.96123657 408.06563595 45.9375 412.5 C46.24067139 413.18376709 46.54384277 413.86753418 46.85620117 414.57202148 C62.9375774 449.96213706 88.1231517 483.63739857 119.0625 507.375 C119.71105957 507.87870117 120.35961914 508.38240234 121.02783203 508.90136719 C123.17816808 510.56865316 125.3372642 512.22383721 127.5 513.875 C128.18690918 514.40432129 128.87381836 514.93364258 129.58154297 515.47900391 C130.23396973 515.97062012 130.88639648 516.46223633 131.55859375 516.96875 C132.13794678 517.40896484 132.7172998 517.84917969 133.31420898 518.30273438 C135.25500789 519.49306936 136.81252323 520.04323246 139.0625 520.375 C148.08864107 516.33659298 155.70206755 508.85725342 163.0625 502.375 C163.88234375 501.66730469 164.7021875 500.95960938 165.546875 500.23046875 C178.29913127 489.04014991 190.03035603 477.06193359 200.0625 463.375 C200.48724609 462.80571777 200.91199219 462.23643555 201.34960938 461.64990234 C207.86485952 452.90951193 213.67508094 443.84968087 219.0625 434.375 C219.41054687 433.76543457 219.75859375 433.15586914 220.1171875 432.52783203 C224.23493895 425.25017074 227.85260874 417.84813314 231.0625 410.125 C231.36559082 409.39748535 231.66868164 408.6699707 231.98095703 407.92041016 C233.18908028 404.92599545 234.0625 402.63428883 234.0625 399.375 C210.3025 399.375 186.5425 399.375 162.0625 399.375 C162.0625 378.915 162.0625 358.455 162.0625 337.375 C211.2325 337.375 260.4025 337.375 311.0625 337.375 C308.71539761 359.67247268 308.71539761 359.67247268 306.6875 370.6875 C306.35443848 372.50689087 306.35443848 372.50689087 306.01464844 374.36303711 C304.62091411 381.79946201 303.15876256 389.07909843 300.76123047 396.265625 C299.85812775 398.99197284 298.99682222 401.7310008 298.12890625 404.46875 C284.27132442 447.63701168 262.72859904 486.79761616 232.0625 520.375 C231.41458496 521.08462891 230.76666992 521.79425781 230.09912109 522.52539062 C223.07883711 530.17418258 216.05676018 537.74050279 208.17578125 544.515625 C205.69434519 546.69892179 203.38070045 549.02026049 201.0625 551.375 C239.65884745 562.3743186 279.28169843 566.24503975 319.0625 559.375 C320.46855312 559.15498809 321.87479228 558.93616045 323.28125 558.71875 C361.30854135 552.33016505 400.018744 535.59529669 430.0625 511.375 C430.99191406 510.63636719 431.92132812 509.89773438 432.87890625 509.13671875 C449.65881348 495.62410918 465.31821994 480.79037224 478.0625 463.375 C478.49256348 462.79508301 478.92262695 462.21516602 479.36572266 461.61767578 C500.55069138 432.9946748 514.3264148 401.81704768 523.0625 367.375 C523.24006836 366.68647949 523.41763672 365.99795898 523.60058594 365.28857422 C524.6004814 361.34167504 525.377182 357.38777392 526.0625 353.375 C526.19640137 352.62299316 526.33030273 351.87098633 526.46826172 351.09619141 C537.35795046 288.02419217 520.79515305 221.33798546 484.32861328 169.15673828 C478.48820677 160.93782452 472.22072708 153.23013278 465.34375 145.84375 C463.45019392 143.79455918 461.6565214 141.7075972 459.875 139.5625 C427.6231724 102.61674444 377.37539841 75.56319718 329.3671875 66.79589844 C327.70781696 66.49285238 326.05186407 66.17087229 324.3984375 65.83691406 C307.97602014 62.59074957 291.81894412 61.97636525 275.125 61.9375 C274.13860535 61.93141724 273.15221069 61.92533447 272.13592529 61.91906738 C254.1462043 61.84649651 236.70924107 63.71593436 219.1875 67.875 C218.29160156 68.07480469 217.39570312 68.27460937 216.47265625 68.48046875 C211.38240634 69.65744848 206.7945452 71.15725674 202.0625 73.375 C206.90344596 78.29129142 211.95238568 82.9736744 217.00390625 87.671875 C224.06742217 94.26448986 230.83585148 100.98085489 237.0625 108.375 C237.73925781 109.17309082 237.73925781 109.17309082 238.4296875 109.98730469 C259.58850764 135.05173606 277.10375524 163.48760697 289.375 193.9375 C289.74681396 194.8557959 290.11862793 195.7740918 290.50170898 196.72021484 C294.56571959 207.12615284 297.65884823 217.67780872 301.0625 228.375 C279.6125 228.375 258.1625 228.375 236.0625 228.375 C234.5775 223.425 234.5775 223.425 233.0625 218.375 C231.11654781 213.63540323 228.87170892 209.04096103 226.625 204.4375 C226.31570557 203.80049164 226.00641113 203.16348328 225.68774414 202.50717163 C214.44114496 179.43569837 199.96197945 158.79964755 182.0625 140.375 C181.43472656 139.72144531 180.80695313 139.06789063 180.16015625 138.39453125 C171.49867293 129.40558164 162.73273809 120.95829289 152.66162109 113.56396484 C151.05902495 112.37241626 149.49221132 111.13323996 147.92578125 109.89453125 C146.47751953 108.77111328 146.47751953 108.77111328 145 107.625 C143.74509766 106.64273438 143.74509766 106.64273438 142.46484375 105.640625 C140.16078003 104.18395322 140.16078003 104.18395322 137.66015625 104.3984375 C134.24366055 105.68283438 131.47244435 107.59578471 128.5625 109.75 C127.95736572 110.18973145 127.35223145 110.62946289 126.72875977 111.08251953 C121.24656677 115.12247954 116.04508844 119.46965213 110.90234375 123.9296875 C109.08349651 125.49584757 107.23376947 127.02725266 105.34765625 128.51171875 C102.4980494 130.83524434 100.38490451 133.53005448 98.0625 136.375 C95.94401208 138.5492376 93.80535636 140.68688043 91.578125 142.75 C70.38924168 162.92988888 55.50890011 190.18391498 44.0625 216.75 C43.46538208 218.13312378 43.46538208 218.13312378 42.85620117 219.54418945 C42.49115479 220.40359131 42.1261084 221.26299316 41.75 222.1484375 C41.42386719 222.91591309 41.09773438 223.68338867 40.76171875 224.47412109 C39.94742503 226.35027323 39.94742503 226.35027323 40.0625 228.375 C18.6125 228.375 -2.8375 228.375 -24.9375 228.375 C-10.30208433 181.54166987 11.31347461 140.13236964 44.0625 103.375 C44.5575 102.81683594 45.0525 102.25867188 45.5625 101.68359375 C53.57689553 92.6882696 61.99816897 84.23345334 71.4140625 76.6875 C72.28804687 75.924375 73.16203125 75.16125 74.0625 74.375 C74.0625 73.715 74.0625 73.055 74.0625 72.375 C70.02701086 71.24745047 65.98317034 70.1529003 61.9375 69.0625 C60.8340625 68.75376953 59.730625 68.44503906 58.59375 68.12695312 C39.86862993 63.1300812 21.17733049 61.87593881 1.85742188 61.98388672 C-1.56680912 62.0000203 -4.98986606 61.98390508 -8.4140625 61.96484375 C-26.70111767 61.94592906 -43.95612699 63.97510355 -61.6875 68.5 Z " fill="#231F20" transform="translate(896.9375,678.625)"/>
<path d="M0 0 C0.79277344 0.12890625 1.58554687 0.2578125 2.40234375 0.390625 C11.5673303 1.9348037 20.53029548 3.94218644 29.375 6.8125 C30.03886719 7.02422852 30.70273437 7.23595703 31.38671875 7.45410156 C38.57430283 9.92090833 45.25727476 13.53198887 52 17 C52.02527002 23.53278786 52.04283292 30.06556321 52.05493164 36.59838867 C52.05997317 38.82267732 52.06680623 41.04696263 52.07543945 43.27124023 C52.08751298 46.46078309 52.09322996 49.65028229 52.09765625 52.83984375 C52.10281754 53.84087631 52.10797882 54.84190887 52.11329651 55.87327576 C52.11337204 56.79415482 52.11344757 57.71503387 52.11352539 58.66381836 C52.115746 59.47878281 52.11796661 60.29374725 52.12025452 61.13340759 C52 63 52 63 51 64 C49.33382885 64.04063832 47.66611905 64.042721 46 64 C45.443125 62.39125 45.443125 62.39125 44.875 60.75 C41.0445144 50.66602395 36.17871401 42.06750718 29 34 C28.39542969 33.30132812 27.79085937 32.60265625 27.16796875 31.8828125 C16.61110764 20.45917753 0.60937163 12.84627444 -14.97485352 11.87719727 C-31.1254975 11.2792945 -46.3349684 12.71934075 -61 20 C-61.92167969 20.44214844 -62.84335937 20.88429688 -63.79296875 21.33984375 C-84.90958053 32.0917434 -98.65319366 50.90150346 -106 73 C-106.29519531 73.82628906 -106.59039063 74.65257812 -106.89453125 75.50390625 C-115.88997723 102.40161912 -111.17010614 134.8779273 -99 160 C-94.19374095 168.92889925 -88.14991507 176.81232129 -81 184 C-80.3503125 184.68449219 -79.700625 185.36898437 -79.03125 186.07421875 C-65.22621672 199.58722248 -46.54397027 205.29747046 -27.625 205.375 C-17.48759179 205.21864385 -8.43340624 203.52759108 1.25 200.625 C1.91225586 200.42817627 2.57451172 200.23135254 3.25683594 200.02856445 C6.70075807 198.94121473 9.73935375 197.66697375 12.859375 195.8359375 C16 194 16 194 18 194 C17.93287241 186.57983678 17.84301504 179.16019515 17.73754883 171.74047852 C17.70434871 169.21775519 17.67630158 166.69495846 17.65356445 164.17211914 C17.61992904 160.54020994 17.56760633 156.90897043 17.51171875 153.27734375 C17.50213387 151.59257179 17.50213387 151.59257179 17.49235535 149.87376404 C17.35836362 142.6944864 16.88749962 137.23749958 11.9375 131.6875 C8.37646702 129.6418002 5.1371217 129.0320592 1.109375 128.39453125 C-1 128 -1 128 -2 127 C-2.125 124 -2.125 124 -2 121 C-0.33212103 119.33212103 1.69721502 119.86825831 3.92526245 119.85336304 C4.62918121 119.85381622 5.33309998 119.85426941 6.05834961 119.85473633 C6.79655441 119.85137772 7.53475922 119.8480191 8.29533386 119.84455872 C10.74768738 119.83502118 13.19997282 119.83310421 15.65234375 119.83203125 C17.35006235 119.82882061 19.04778066 119.82545669 20.74549866 119.82194519 C24.30909873 119.8159469 27.87267453 119.81410601 31.4362793 119.81469727 C36.01093044 119.81479893 40.5854265 119.8011458 45.16004086 119.78392506 C48.6678184 119.77282656 52.17555821 119.77077739 55.68335152 119.77130699 C57.37031145 119.77012366 59.05727227 119.76568222 60.74421501 119.75797462 C63.10034025 119.74821791 65.45612558 119.75103547 67.81225586 119.75708008 C68.51415039 119.75146057 69.21604492 119.74584106 69.93920898 119.74005127 C74.77168423 119.77168423 74.77168423 119.77168423 77 122 C76.625 124.625 76.625 124.625 76 127 C74.4840625 127.4021875 74.4840625 127.4021875 72.9375 127.8125 C66.65488045 129.64387088 61.5906725 131.19968289 58 137 C57.10444107 140.49788559 56.88774208 143.73639239 56.92163086 147.33764648 C56.92750717 148.37900253 56.93338348 149.42035858 56.93943787 150.49327087 C56.94782181 151.60795242 56.95620575 152.72263397 56.96484375 153.87109375 C56.96113196 156.24284287 56.95520442 158.61458938 56.94726562 160.98632812 C56.93669414 164.71756894 56.93759627 168.44689499 56.97583008 172.17797852 C57.0089227 175.7850744 56.99138043 179.38900624 56.96484375 182.99609375 C56.98739731 184.10875107 57.00995087 185.22140839 57.03318787 186.36778259 C56.91588367 193.93629289 56.91588367 193.93629289 54.26896667 197.01042175 C52.24112338 198.55844562 50.25377914 199.81073372 48 201 C46.92621094 201.61746094 45.85242188 202.23492187 44.74609375 202.87109375 C12.61509157 218.08305582 -29.22882995 225.64144916 -64 216 C-64.9595459 215.74259033 -64.9595459 215.74259033 -65.93847656 215.47998047 C-85.22588208 210.22873794 -102.50026249 201.7104187 -118 189 C-119.485 187.88625 -119.485 187.88625 -121 186.75 C-136.74710413 173.3519114 -145.86485316 152.84366199 -150 133 C-150.16846436 132.29302979 -150.33692871 131.58605957 -150.51049805 130.85766602 C-152.04042211 124.05853354 -152.34721503 117.51794118 -152.3125 110.5625 C-152.30903564 109.428125 -152.30557129 108.29375 -152.30200195 107.125 C-152.17552116 97.20778769 -151.11962422 87.68242305 -149 78 C-148.79503906 77.05640625 -148.59007812 76.1128125 -148.37890625 75.140625 C-141.6211763 49.45285648 -123.69230858 28.95119989 -101.35473633 15.46069336 C-70.72714109 -2.30248094 -34.52524456 -5.68215116 0 0 Z " fill="#252122" transform="translate(652,239)"/>
<path d="M0 0 C26.73 0 53.46 0 81 0 C81.495 2.475 81.495 2.475 82 5 C79.61650879 7.38349121 78.99332392 7.23158772 75.75 7.375 C71.18315878 7.81482419 68.51190643 8.89645478 65 12 C60.27767196 18.31596192 60.42978505 23.96665717 60.48242188 31.67382812 C60.4754126 32.93822723 60.46840332 34.20262634 60.46118164 35.50534058 C60.44301017 38.96052585 60.44999372 42.41523105 60.46269798 45.87042427 C60.47287555 49.50424552 60.46341755 53.1380276 60.45715332 56.77185059 C60.44988325 62.88150337 60.45943987 68.99096259 60.47851562 75.10058594 C60.50020531 82.12778125 60.49328847 89.15451081 60.47121 96.18169451 C60.45294389 102.24150797 60.45055423 108.30118268 60.46096468 114.36101484 C60.46714863 117.96813525 60.4681798 121.57503839 60.45481873 125.18214417 C60.16708414 145.96180065 60.16708414 145.96180065 65 166 C65.39651512 167.10253365 65.39651512 167.10253365 65.80104065 168.2273407 C72.03610336 184.17884231 84.69645902 195.34745696 99.984375 202.37109375 C102.63599781 203.39354153 105.26101038 204.24542295 108 205 C108.79535156 205.22300781 109.59070313 205.44601562 110.41015625 205.67578125 C126.45802687 209.51161374 141.68242119 206.20751779 155.8359375 198.09765625 C170.83016984 188.15703555 180.52101539 174.02397881 186 157 C186.25429779 156.21317841 186.50859558 155.42635681 186.77059937 154.61569214 C188.80821826 147.79267379 189.41567307 141.64307068 189.328125 134.546875 C189.3266597 133.46885117 189.3251944 132.39082733 189.32368469 131.28013611 C189.31445476 127.76983262 189.28289198 124.26015508 189.25 120.75 C189.23736327 118.29403085 189.22557417 115.83805721 189.21459961 113.38208008 C189.09547481 91.89464882 188.7227122 70.41108592 188.13232422 48.93164062 C188.02768225 45.11872015 187.93925559 41.30574907 187.85966492 37.49223328 C187.79360242 34.47365496 187.70868531 31.45563365 187.625 28.4375 C187.59708374 26.92192505 187.59708374 26.92192505 187.56860352 25.37573242 C187.39625428 20.21759877 186.94134481 16.42589149 184 12 C179.31295699 8.53158817 175.7055217 7.53243299 169.91796875 7.2734375 C168 7 168 7 166 5 C166.33 3.35 166.66 1.7 167 0 C186.47 0 205.94 0 226 0 C226.33 1.65 226.66 3.3 227 5 C223.97712128 7.01525248 222.66259891 7.32673349 219.1875 7.8125 C214.04132351 8.7741213 211.5648153 10.16782356 208 14 C206.298615 17.50231048 205.74408657 20.32588549 205.71047974 24.2011261 C205.69668274 25.22823196 205.68288574 26.25533783 205.66867065 27.31356812 C205.66344391 28.42994659 205.65821716 29.54632507 205.65283203 30.6965332 C205.632771 32.4732415 205.632771 32.4732415 205.61230469 34.2858429 C205.57687922 37.53030175 205.54975823 40.77471808 205.5250802 44.01927209 C205.49607914 47.43118637 205.45307765 50.84291555 205.41061401 54.25468445 C205.26866049 65.86596408 205.14927498 77.47742227 205.04638672 89.08911133 C204.98938275 95.50556052 204.91839781 101.92171294 204.83307922 108.33784932 C204.78873556 111.7241923 204.7515278 115.11026554 204.73218155 118.49685097 C204.55614224 145.65444189 204.55614224 145.65444189 200 159 C199.72010223 159.83077057 199.44020447 160.66154114 199.15182495 161.51748657 C195.80841462 170.6235061 191.16839479 178.51918078 185 186 C184.38511719 186.77730469 183.77023437 187.55460938 183.13671875 188.35546875 C169.13307117 205.20043613 147.01078252 215.70450326 125.5 218.71484375 C98.82458591 220.88817548 73.6448691 216.1136439 52.421875 198.91015625 C49.86588806 196.67954801 47.42215426 194.37489271 45 192 C43.85724609 190.91138672 43.85724609 190.91138672 42.69140625 189.80078125 C27.04084707 173.82473383 20.6780831 151.41385375 20.72875977 129.55541992 C20.72353302 128.36376221 20.71830627 127.17210449 20.71292114 125.94433594 C20.7000995 122.71118604 20.69563581 119.47814801 20.69407773 116.24497771 C20.68957007 112.84583911 20.67155273 109.4467774 20.65428162 106.04768372 C20.60535584 95.96148253 20.57418203 85.87523711 20.55297852 75.78894043 C20.53643823 67.92861622 20.51361437 60.06843751 20.46995777 52.20821077 C20.4517925 48.83117867 20.43955907 45.45434613 20.44125557 42.07726097 C20.44106378 38.31719095 20.42281867 34.5576027 20.40063477 30.79760742 C20.40521194 29.68631973 20.40978912 28.57503204 20.414505 27.43006897 C20.36249254 21.89182707 20.21669364 17.73554194 17 13 C12.26737967 8.72909873 9.26630562 7.84986423 3.09375 7.37890625 C1 7 1 7 -1 5 C-0.67 3.35 -0.34 1.7 0 0 Z " fill="#242021" transform="translate(746,241)"/>
<path d="M0 0 C1.21171875 0.20496094 2.4234375 0.40992188 3.671875 0.62109375 C10.73111651 1.9550584 17.54416851 3.99187559 24.375 6.1875 C25.18839844 6.44241211 26.00179688 6.69732422 26.83984375 6.95996094 C35.48690268 9.84569696 42.59285352 13.79642676 51 18 C51 33.18 51 48.36 51 64 C48.525 64.495 48.525 64.495 46 65 C45.5978125 63.47246094 45.5978125 63.47246094 45.1875 61.9140625 C41.2241526 48.11856483 31.86079997 33.29767899 20 25 C19.16726563 24.41734375 18.33453125 23.8346875 17.4765625 23.234375 C0.50538517 11.92025678 -18.72870674 8.59409586 -38.6875 12.1875 C-54.29963952 15.70064181 -67.9939032 22.43853924 -80 33 C-80.76183594 33.66644531 -81.52367187 34.33289063 -82.30859375 35.01953125 C-98.52685888 50.16969573 -109.0740159 74.45637559 -110.12231445 96.58154297 C-111.02788972 129.11111986 -104.83515428 158.96457883 -83 184 C-71.81315886 195.76892068 -59.33980848 201.81478293 -44 206 C-43.01 206.33 -42.02 206.66 -41 207 C-36.85874797 207.26303785 -32.71119618 207.23157159 -28.5625 207.25 C-27.43650391 207.270625 -26.31050781 207.29125 -25.15039062 207.3125 C-2.21592271 207.41800647 16.11040302 196.68353592 32 181 C41.1271964 171.89098527 48.6881253 160.48464234 52.8671875 148.29296875 C54.19506944 145.60515254 55.22837971 145.0031178 58 144 C61.405062 147.405062 59.82696474 158.71332234 59.9543457 163.32495117 C60.02593413 165.38517881 60.12805604 167.44459164 60.26196289 169.50170898 C61.31928217 186.07796228 61.31928217 186.07796228 57.49554443 190.89544678 C53.77076865 194.11155221 49.60374897 196.22977626 45.08728027 198.12309265 C42.99303082 199.00292789 40.98147789 199.98140934 38.95678711 201.01025391 C30.27055079 205.3818988 21.17249489 208.7985532 12 212 C10.94554687 212.36996094 9.89109375 212.73992187 8.8046875 213.12109375 C5.55697716 214.1884359 2.30395503 215.12136581 -1 216 C-1.68416992 216.18336914 -2.36833984 216.36673828 -3.07324219 216.55566406 C-36.86688348 225.29616385 -71.05476604 218.86680004 -101.22021484 202.05029297 C-106.16349546 199.13314713 -110.60563798 195.67593771 -115 192 C-116.00804687 191.16726563 -117.01609375 190.33453125 -118.0546875 189.4765625 C-135.80206033 174.32162907 -147.93415905 151.60935704 -150.72265625 128.3984375 C-151.19270173 122.25630962 -151.21253338 116.09451399 -151.25 109.9375 C-151.25942627 108.76614502 -151.26885254 107.59479004 -151.27856445 106.38793945 C-151.16345643 75.38044406 -139.51090833 49.51090833 -117.7890625 27.7890625 C-86.22381104 -1.89870189 -41.00519434 -7.51882535 0 0 Z " fill="#252122" transform="translate(1136,238)"/>
<path d="M0 0 C1.0828125 0.30679688 2.165625 0.61359375 3.28125 0.9296875 C12.00740317 3.58037381 19.94225796 7.79805099 28 12 C28.66 12.33 29.32 12.66 30 13 C30 28.18 30 43.36 30 59 C27.525 59.495 27.525 59.495 25 60 C24.8040625 59.21238281 24.608125 58.42476563 24.40625 57.61328125 C19.56933982 39.99608684 7.99276705 24.15971651 -8 15 C-11.6090113 13.17844774 -15.26041189 11.53374812 -19 10 C-19.82242187 9.64808594 -20.64484375 9.29617187 -21.4921875 8.93359375 C-40.38823036 1.89908558 -62.60147329 6.09270288 -80.43994141 14.1550293 C-86.5092348 17.06893206 -91.81299136 20.70841587 -97 25 C-97.83917969 25.66515625 -98.67835937 26.3303125 -99.54296875 27.015625 C-118.14645501 42.59063675 -128.35193228 66.99386471 -130.68359375 90.73828125 C-133.05300102 119.7179548 -126.97680673 150.20218436 -108.375 173.29296875 C-95.76989278 187.66030313 -79.03321177 200.79913473 -59.12231445 202.20288086 C-55.82896425 202.30461674 -52.54484476 202.32198976 -49.25 202.3125 C-48.1465625 202.32861328 -47.043125 202.34472656 -45.90625 202.36132812 C-24.39719712 202.37395081 -5.52156271 192.43919855 10 178 C13.22047569 174.48628611 16.14474725 170.81422759 19 167 C19.62777344 166.175 20.25554687 165.35 20.90234375 164.5 C25.3982687 158.36114405 28.73976998 151.85772521 32 145 C32.99627388 142.99814127 33.99527468 140.99763035 35 139 C35.99 139.33 36.98 139.66 38 140 C38.22293923 146.15617143 38.38599806 152.30998285 38.49438477 158.46923828 C38.53957205 160.56275362 38.60093836 162.65598605 38.67895508 164.74853516 C38.78849792 167.76275331 38.83923682 170.77321344 38.87890625 173.7890625 C38.92535782 174.72054108 38.97180939 175.65201965 39.01966858 176.61172485 C39.02178086 179.34758458 38.91110097 181.41649804 38 184 C35.30442153 186.64487686 32.34762974 188.2978283 29 190 C27.60014028 190.81434525 26.20254619 191.63261508 24.80859375 192.45703125 C7.59030724 201.88604604 -10.75848953 209.00686933 -30 213 C-30.73081787 213.17515137 -31.46163574 213.35030273 -32.21459961 213.53076172 C-39.11113991 215.0953541 -45.75765379 215.3101572 -52.8125 215.25 C-53.96886963 215.24250732 -55.12523926 215.23501465 -56.31665039 215.22729492 C-64.05166033 215.12950788 -71.44823896 214.78125076 -79 213 C-80.04365723 212.76603516 -80.04365723 212.76603516 -81.10839844 212.52734375 C-92.69218006 209.89577367 -103.3299192 206.20690624 -114 201 C-114.99515625 200.51660156 -115.9903125 200.03320312 -117.015625 199.53515625 C-140.35089863 187.50082228 -156.72161818 168.29194464 -166 144 C-166.30550781 143.23558594 -166.61101562 142.47117187 -166.92578125 141.68359375 C-167.74311993 139.47468356 -168.393047 137.27607375 -169 135 C-169.2784375 133.98164063 -169.556875 132.96328125 -169.84375 131.9140625 C-176.70927772 102.09987267 -171.94600727 69.61291787 -156.26171875 43.3828125 C-139.06365381 16.86178763 -110.87813587 0.97244377 -80.5625 -5.75 C-53.79704515 -11.2899016 -25.93971979 -7.76920039 0 0 Z " fill="#252122" transform="translate(1398,243)"/>
<path d="M0 0 C26.73 0 53.46 0 81 0 C81.495 2.475 81.495 2.475 82 5 C79.61650879 7.38349121 78.99332392 7.23158772 75.75 7.375 C70.2681063 7.87736003 66.83991603 9.90630245 63.1875 14.0625 C60.78563457 17.98133307 60.87021432 21.34006698 60.85955811 25.8367157 C60.85658698 26.53600545 60.85361586 27.23529521 60.8505547 27.95577556 C60.84186619 30.30475761 60.84035932 32.65368869 60.83886719 35.00268555 C60.83423904 36.68470875 60.82921438 38.3667309 60.82382202 40.04875183 C60.81069376 44.62334521 60.80425197 49.1979239 60.79981136 53.77253318 C60.79688069 56.63116704 60.79277584 59.48979689 60.78830719 62.34842873 C60.77462974 71.29399811 60.76496489 80.23955833 60.7611053 89.18513745 C60.75662694 99.50810761 60.73909041 109.8309452 60.7101047 120.15387505 C60.68847493 128.13446437 60.67840029 136.11501644 60.67706418 144.09563476 C60.67601687 148.86119386 60.67012515 153.62662839 60.65224457 158.3921566 C60.63574201 162.87782732 60.63361898 167.36328012 60.64238358 171.84897041 C60.64315284 173.49203958 60.63882583 175.13512057 60.62892532 176.7781601 C60.41980033 188.2502848 60.41980033 188.2502848 64 199 C68.17193655 202.8666729 72.36826612 203.69710618 77.828125 204.5078125 C80 205 80 205 82 207 C82.25 209.5 82.25 209.5 82 212 C79.53112782 214.46887218 78.12958413 214.24246204 74.75993347 214.27105713 C73.66736992 214.26498444 73.66736992 214.26498444 72.55273438 214.25878906 C71.78512283 214.2622937 71.01751129 214.26579834 70.22663879 214.26940918 C67.68225128 214.27823168 65.13814047 214.2723756 62.59375 214.265625 C60.83019965 214.2669715 59.06664966 214.26891191 57.30310059 214.27142334 C53.60421215 214.2743753 49.9054202 214.27007466 46.20654297 214.26074219 C41.45815094 214.24934759 36.70998498 214.25590668 31.96160126 214.26788712 C28.31913541 214.27510378 24.67672342 214.27281868 21.03425598 214.26763153 C19.28310622 214.2662945 17.53195161 214.26794463 15.7808075 214.27259064 C13.33616119 214.27765273 10.89188432 214.26995031 8.44726562 214.25878906 C7.71888992 214.26283752 6.99051422 214.26688599 6.24006653 214.27105713 C1.22852887 214.22852887 1.22852887 214.22852887 -1 212 C-1.25 209.5 -1.25 209.5 -1 207 C1.3931124 204.6068876 2.46909084 204.6121653 5.75 204.125 C10.32490207 203.26679326 13.43074749 202.13397781 17 199 C19.78696262 194.42882813 20.37755323 190.99928418 20.38768005 185.68190002 C20.39306559 184.96709077 20.39845113 184.25228152 20.40399987 183.51581138 C20.41825207 181.13218949 20.41118276 178.74912509 20.40405273 176.36547852 C20.40975775 174.6518306 20.41672252 172.93818648 20.42485046 171.22454834 C20.44278245 166.57783274 20.44161342 161.93130597 20.43590808 157.28456616 C20.43281631 153.40282837 20.43890854 149.52112685 20.44494683 145.63939422 C20.45899055 136.4808382 20.457432 127.32237546 20.44604492 118.16381836 C20.43456334 108.72067437 20.44864039 99.27781437 20.4754414 89.8347078 C20.49760418 81.72157307 20.50423448 73.60852745 20.49836498 65.49536461 C20.49499565 60.65217566 20.49740895 55.80916877 20.51461601 50.96600533 C20.5300923 46.41127324 20.52612207 41.85696161 20.50731087 37.30224609 C20.50362689 35.63296018 20.5067279 33.96364306 20.51719666 32.29438591 C20.53042217 30.01080254 20.51884709 27.72860799 20.50120544 25.44508362 C20.50099616 24.1688189 20.50078688 22.89255419 20.50057125 21.57761478 C19.87133676 17.08043558 18.54084441 14.74812692 16 11 C11.80643195 8.07425485 7.92999496 7.58790788 2.953125 7.30859375 C1 7 1 7 -1 5 C-0.67 3.35 -0.34 1.7 0 0 Z " fill="#242021" transform="translate(1463,241)"/>
<path d="M0 0 C0 4.28535967 -2.2516278 5.84942699 -5 9 C-5.33 9.66 -5.66 10.32 -6 11 C-6.66 11 -7.32 11 -8 11 C-8.33 12.65 -8.66 14.3 -9 16 C-10.98 16.33 -12.96 16.66 -15 17 C-10.60502098 10.67467725 -5.54949524 5.32751543 0 0 Z " fill="#3B3839" transform="translate(953,768)"/>
<path d="M0 0 C1.65 0.33 3.3 0.66 5 1 C5.33 2.65 5.66 4.3 6 6 C5.01 6.495 5.01 6.495 4 7 C1.64018187 6.06421005 -0.69631264 5.06652192 -3 4 C-2.67 3.34 -2.34 2.68 -2 2 C-1.34 2 -0.68 2 0 2 C0 1.34 0 0.68 0 0 Z " fill="#312D2E" transform="translate(723,359)"/>
<path d="M0 0 C0.66 0.33 1.32 0.66 2 1 C1.67 1.66 1.34 2.32 1 3 C0.67 3.99 0.34 4.98 0 6 C-0.66 6.66 -1.32 7.32 -2 8 C-2.70710678 9.64991582 -3.37943989 11.31562256 -4 13 C-4.66 13 -5.32 13 -6 13 C-6.33 13.66 -6.66 14.32 -7 15 C-7.33 14.34 -7.66 13.68 -8 13 C-6.6015625 10.21484375 -6.6015625 10.21484375 -4.625 6.9375 C-3.65433594 5.31134766 -3.65433594 5.31134766 -2.6640625 3.65234375 C-1 1 -1 1 0 0 Z " fill="#302D2E" transform="translate(628,828)"/>
<path d="M0 0 C2.15377564 2.62198774 3.40072174 4.64404172 4 8 C2.35 8.66 0.7 9.32 -1 10 C-1.91058531 6.92677456 -2.08886184 4.19902639 -2 1 C-1.34 0.67 -0.68 0.34 0 0 Z " fill="#2D292A" transform="translate(548,390)"/>
<path d="M0 0 C0.66 0 1.32 0 2 0 C2 0.66 2 1.32 2 2 C2.99 2.33 3.98 2.66 5 3 C4.67 4.32 4.34 5.64 4 7 C3.34 6.67 2.68 6.34 2 6 C2 6.66 2 7.32 2 8 C1.01 7.67 0.02 7.34 -1 7 C-1.04254356 5.00045254 -1.04080783 2.99958364 -1 1 C-0.67 0.67 -0.34 0.34 0 0 Z " fill="#2C2A2B" transform="translate(651,359)"/>
<path d="M0 0 C0.66 0.99 1.32 1.98 2 3 C0.02 5.64 -1.96 8.28 -4 11 C-4.99 10.01 -5.98 9.02 -7 8 C-6.67 7.34 -6.34 6.68 -6 6 C-5.34 6 -4.68 6 -4 6 C-3.34 4.68 -2.68 3.36 -2 2 C-1.34 2 -0.68 2 0 2 C0 1.34 0 0.68 0 0 Z " fill="#2A2728" transform="translate(696,834)"/>
<path d="M0 0 C1.98 0.495 1.98 0.495 4 1 C4.33 2.65 4.66 4.3 5 6 C3.125 6.625 3.125 6.625 1 7 C0.34 6.34 -0.32 5.68 -1 5 C-0.625 2.375 -0.625 2.375 0 0 Z " fill="#353132" transform="translate(913,241)"/>
<path d="M0 0 C3.27286682 2.7819368 4.96427697 6.27954067 7 10 C6.01 10 5.02 10 4 10 C3.67 9.01 3.34 8.02 3 7 C2.34 7 1.68 7 1 7 C-0.0625 4.625 -0.0625 4.625 -1 2 C-0.67 1.34 -0.34 0.68 0 0 Z " fill="#2E2B2B" transform="translate(685,1128)"/>
<path d="M0 0 C4.875 3.625 4.875 3.625 6 7 C4.02 7 2.04 7 0 7 C-0.93423645 3.98968256 -1.04449911 3.13349732 0 0 Z " fill="#312D2E" transform="translate(1123,775)"/>
<path d="M0 0 C0.99 1.32 1.98 2.64 3 4 C0.42595029 7.86107457 -1.61020259 7.94319692 -6 9 C-4.02 6.03 -2.04 3.06 0 0 Z " fill="#312E2F" transform="translate(1419,407)"/>
<path d="M0 0 C-8.261959 4.59225513 -8.261959 4.59225513 -13 4 C-13.33 3.34 -13.66 2.68 -14 2 C-12.42085985 1.46658816 -10.83645613 0.94874237 -9.25 0.4375 C-8.36828125 0.14746094 -7.4865625 -0.14257812 -6.578125 -0.44140625 C-3.92165684 -1.01697435 -2.52968894 -0.89248371 0 0 Z " fill="#3C3839" transform="translate(1098,689)"/>
<path d="M0 0 C1 4 1 4 1 6 C0.34 6 -0.32 6 -1 6 C-1 6.99 -1 7.98 -1 9 C-1.66 9 -2.32 9 -3 9 C-3 9.66 -3 10.32 -3 11 C-3.99 10.67 -4.98 10.34 -6 10 C-4.02 6.7 -2.04 3.4 0 0 Z " fill="#343132" transform="translate(518,284)"/>
<path d="M0 0 C0.33 0.66 0.66 1.32 1 2 C1.66 2 2.32 2 3 2 C3 2.99 3 3.98 3 5 C2.01 5.66 1.02 6.32 0 7 C-0.68268138 8.32520503 -1.3507041 9.65812182 -2 11 C-2.99 11.495 -2.99 11.495 -4 12 C-3.52309796 10.37433394 -3.04340334 8.74948689 -2.5625 7.125 C-2.29566406 6.22007812 -2.02882813 5.31515625 -1.75390625 4.3828125 C-1 2 -1 2 0 0 Z " fill="#373435" transform="translate(883,872)"/>
<path d="M0 0 C0.99 0.33 1.98 0.66 3 1 C3.99 1 4.98 1 6 1 C5.01 2.98 4.02 4.96 3 7 C1.68 6.34 0.36 5.68 -1 5 C-0.67 3.35 -0.34 1.7 0 0 Z " fill="#2E2A2B" transform="translate(954,858)"/>
<path d="M0 0 C1.32 0 2.64 0 4 0 C5.06775224 1.96466413 6.06553465 3.96855359 7 6 C6.67 6.66 6.34 7.32 6 8 C4.68 7.01 3.36 6.02 2 5 C1.01 5.495 1.01 5.495 0 6 C0 4.02 0 2.04 0 0 Z " fill="#2B292A" transform="translate(1169,842)"/>
<path d="M0 0 C0.66 1.32 1.32 2.64 2 4 C-1.625 9.875 -1.625 9.875 -5 11 C-3.55049545 7.2089881 -1.84827434 3.6125362 0 0 Z " fill="#353233" transform="translate(901,835)"/>
<path d="M0 0 C1.32 0.33 2.64 0.66 4 1 C1.69 3.31 -0.62 5.62 -3 8 C-3.66 6.68 -4.32 5.36 -5 4 C-2.75 1.9375 -2.75 1.9375 0 0 Z " fill="#2F2C2D" transform="translate(1055,267)"/>
<path d="M0 0 C0.33 0.66 0.66 1.32 1 2 C0.29296875 3.91015625 0.29296875 3.91015625 -0.8125 6.0625 C-1.16957031 6.77535156 -1.52664063 7.48820312 -1.89453125 8.22265625 C-3 10 -3 10 -5 11 C-5.66 10.34 -6.32 9.68 -7 9 C-4.69 6.03 -2.38 3.06 0 0 Z " fill="#393637" transform="translate(1009,275)"/>
<path d="M0 0 C2.97 0.495 2.97 0.495 6 1 C5.67 3.31 5.34 5.62 5 8 C2.74754119 5.31158141 1.11786042 3.35358125 0 0 Z " fill="#2A2627" transform="translate(911,1161)"/>
<path d="M0 0 C0.99 0.33 1.98 0.66 3 1 C2.34 2.98 1.68 4.96 1 7 C-2 7 -2 7 -4 6 C-2.68 4.02 -1.36 2.04 0 0 Z " fill="#2E2B2C" transform="translate(916,812)"/>
<path d="M0 0 C2.0625 0.4375 2.0625 0.4375 4 1 C0.375 5.875 0.375 5.875 -3 7 C-1.125 1.125 -1.125 1.125 0 0 Z " fill="#2C2929" transform="translate(1372,1228)"/>
<path d="M0 0 C3.96 1.98 3.96 1.98 8 4 C7.01 4.99 6.02 5.98 5 7 C4.34 6.34 3.68 5.68 3 5 C2.34 5 1.68 5 1 5 C0.67 3.35 0.34 1.7 0 0 Z " fill="#332F30" transform="translate(769,1207)"/>
<path d="M0 0 C0.99 0 1.98 0 3 0 C3 0.66 3 1.32 3 2 C3.66 2.33 4.32 2.66 5 3 C4.01 4.98 3.02 6.96 2 9 C0 7 0 7 -0.125 3.375 C-0.08375 2.26125 -0.0425 1.1475 0 0 Z " fill="#2C2829" transform="translate(1449,1130)"/>
<path d="M0 0 C1.65 1.65 3.3 3.3 5 5 C4.34 5.66 3.68 6.32 3 7 C1.02 6.34 -0.96 5.68 -3 5 C-2.34 4.67 -1.68 4.34 -1 4 C-0.34786708 1.97536745 -0.34786708 1.97536745 0 0 Z " fill="#302E2E" transform="translate(1423,801)"/>
<path d="M0 0 C0.66 0.33 1.32 0.66 2 1 C-0.97 4.96 -0.97 4.96 -4 9 C-4.99 8.34 -5.98 7.68 -7 7 C-4.69 4.69 -2.38 2.38 0 0 Z " fill="#312E2F" transform="translate(688,756)"/>
<path d="M0 0 C0.66 0.33 1.32 0.66 2 1 C1.34 2.32 0.68 3.64 0 5 C-0.66 5 -1.32 5 -2 5 C-3.62514468 6.45833358 -3.62514468 6.45833358 -5 8 C-5.99 7.67 -6.98 7.34 -8 7 C-5.36 4.69 -2.72 2.38 0 0 Z " fill="#E8E6E7" transform="translate(1383,1223)"/>
<path d="M0 0 C1.26041675 2.5208335 0.66225891 3.35096436 0 6 C0.33 6.66 0.66 7.32 1 8 C-0.65 7.67 -2.3 7.34 -4 7 C-2.68 4.69 -1.36 2.38 0 0 Z M2 3 C2 3.99 2 4.98 2 6 C1.34 5.67 0.68 5.34 0 5 C0.66 4.34 1.32 3.68 2 3 Z " fill="#332F30" transform="translate(636,815)"/>
<path d="M0 0 C2.125 0.9375 2.125 0.9375 4 2 C1.61426621 3.89213369 -0.07175348 5.02391783 -3 6 C-2.625 3.5625 -2.625 3.5625 -2 1 C-1.34 0.67 -0.68 0.34 0 0 Z " fill="#332F30" transform="translate(1177,433)"/>
<path d="M0 0 C0.66 0.33 1.32 0.66 2 1 C0.02 3.97 0.02 3.97 -2 7 C-3.32 6.67 -4.64 6.34 -6 6 C-4.02 4.02 -2.04 2.04 0 0 Z " fill="#2E2B2C" transform="translate(1084,1157)"/>
<path d="M0 0 C0.66 0.66 1.32 1.32 2 2 C1.625 4.125 1.625 4.125 1 6 C0.34 6 -0.32 6 -1 6 C-2.32 6.33 -3.64 6.66 -5 7 C-3.35 4.69 -1.7 2.38 0 0 Z " fill="#312F2F" transform="translate(937,785)"/>
<path d="M0 0 C0.99 0.33 1.98 0.66 3 1 C2.67 2.65 2.34 4.3 2 6 C0.02 5.01 -1.96 4.02 -4 3 C-2.1875 1.4375 -2.1875 1.4375 0 0 Z " fill="#2E2A2B" transform="translate(1274,433)"/>
<path d="M0 0 C0.8125 1.6875 0.8125 1.6875 1 4 C-1.4375 6.75 -1.4375 6.75 -4 9 C-4 5 -4 5 -2 3 C-1.34 2.01 -0.68 1.02 0 0 Z " fill="#2E2B2C" transform="translate(1151,1168)"/>
<path d="M0 0 C3.36720387 1.39332574 4.9859524 2.9789286 7 6 C1.25 4.375 1.25 4.375 -1 1 C-0.67 0.67 -0.34 0.34 0 0 Z " fill="#2F2B2C" transform="translate(717,1168)"/>
<path d="M0 0 C0 3 0 3 -2.5 5.6875 C-3.325 6.450625 -4.15 7.21375 -5 8 C-5.99 7.34 -6.98 6.68 -8 6 C-5.36 4.02 -2.72 2.04 0 0 Z " fill="#353233" transform="translate(1158,428)"/>
<path d="M0 0 C0.99 0.33 1.98 0.66 3 1 C2.34 2.65 1.68 4.3 1 6 C-0.32 6 -1.64 6 -3 6 C-1.125 1.125 -1.125 1.125 0 0 Z " fill="#2E2B2C" transform="translate(1252,273)"/>
<path d="M0 0 C1.98 0.495 1.98 0.495 4 1 C3.34 2.32 2.68 3.64 2 5 C1.01 4.67 0.02 4.34 -1 4 C-0.67 2.68 -0.34 1.36 0 0 Z " fill="#2E2A2B" transform="translate(1172,1130)"/>
<path d="M0 0 C0.99 0 1.98 0 3 0 C3.66 1.98 4.32 3.96 5 6 C3.68 5.67 2.36 5.34 1 5 C0.67 3.35 0.34 1.7 0 0 Z " fill="#312D2E" transform="translate(1450,846)"/>
<path d="M0 0 C4.67692308 1.47692308 4.67692308 1.47692308 6.3125 4.125 C6.539375 4.74375 6.76625 5.3625 7 6 C4 6 4 6 1.8125 4.125 C0 2 0 2 0 0 Z " fill="#2A2526" transform="translate(1350,810)"/>
<path d="M0 0 C1.67542976 0.28604898 3.34385343 0.61781233 5 1 C4.67 1.99 4.34 2.98 4 4 C3.01 4.33 2.02 4.66 1 5 C0.34 3.68 -0.32 2.36 -1 1 C-0.67 0.67 -0.34 0.34 0 0 Z " fill="#2C2829" transform="translate(730,796)"/>
<path d="M0 0 C1.65 1.65 3.3 3.3 5 5 C2.37886292 5 0.49064888 4.68707555 -2 4 C-1.34 2.68 -0.68 1.36 0 0 Z " fill="#322E2F" transform="translate(1131,784)"/>
<path d="M0 0 C2.9375 0.375 2.9375 0.375 6 1 C6.33 1.66 6.66 2.32 7 3 C5.02 3.33 3.04 3.66 1 4 C0.67 2.68 0.34 1.36 0 0 Z " fill="#2D2A2B" transform="translate(724,1177)"/>
<path d="M0 0 C2.2477975 2.05233685 3.0022242 3.00667261 4 6 C3.01 6.495 3.01 6.495 2 7 C1.01 6.34 0.02 5.68 -1 5 C-0.67 3.35 -0.34 1.7 0 0 Z " fill="#2E2B2C" transform="translate(675,1112)"/>
<path d="M0 0 C0.99 0.99 1.98 1.98 3 3 C2.67 3.99 2.34 4.98 2 6 C0.68 5.67 -0.64 5.34 -2 5 C-2 4.01 -2 3.02 -2 2 C-1.34 2 -0.68 2 0 2 C0 1.34 0 0.68 0 0 Z " fill="#302C2D" transform="translate(940,1085)"/>
<path d="M0 0 C0.99 0.33 1.98 0.66 3 1 C2.67 2.32 2.34 3.64 2 5 C0.68 5.33 -0.64 5.66 -2 6 C-1.34 4.02 -0.68 2.04 0 0 Z " fill="#373535" transform="translate(617,846)"/>
<path d="M0 0 C0.66 0.66 1.32 1.32 2 2 C0 4 -2 6 -4 8 C-4.66 7.34 -5.32 6.68 -6 6 C-4.02 4.02 -2.04 2.04 0 0 Z " fill="#282526" transform="translate(669,775)"/>
<path d="M0 0 C1.65 1.65 3.3 3.3 5 5 C3.68 5.33 2.36 5.66 1 6 C1 5.34 1 4.68 1 4 C0.01 3.67 -0.98 3.34 -2 3 C-1.34 2.67 -0.68 2.34 0 2 C0 1.34 0 0.68 0 0 Z " fill="#3A3738" transform="translate(1395,769)"/>
<path d="M0 0 C2.475 0.99 2.475 0.99 5 2 C5 2.66 5 3.32 5 4 C4.01 4.33 3.02 4.66 2 5 C-0.1875 3.5625 -0.1875 3.5625 -2 2 C-1.34 1.34 -0.68 0.68 0 0 Z " fill="#2A2728" transform="translate(1025,706)"/>
<path d="M0 0 C0 3 0 3 -2 6 C-2 6.66 -2 7.32 -2 8 C-3.65 7.67 -5.3 7.34 -7 7 C-4.66666667 4.66666667 -2.33333333 2.33333333 0 0 Z " fill="#2D2B2C" transform="translate(914,429)"/>
<path d="M0 0 C2.475 0.495 2.475 0.495 5 1 C5 1.66 5 2.32 5 3 C5.66 3.33 6.32 3.66 7 4 C6.01 5.485 6.01 5.485 5 7 C3.35 4.69 1.7 2.38 0 0 Z " fill="#353132" transform="translate(524,417)"/>
<path d="M0 0 C2.31 0.66 4.62 1.32 7 2 C6.67 2.99 6.34 3.98 6 5 C2.83884224 3.63016497 2.0072908 3.0109362 0 0 Z " fill="#3D3A3B" transform="translate(957,1217)"/>
<path d="M0 0 C0.33 0.66 0.66 1.32 1 2 C-0.25 4.5625 -0.25 4.5625 -2 7 C-2.99 7.33 -3.98 7.66 -5 8 C-3.62845496 5.04590299 -2.01136276 2.55991624 0 0 Z " fill="#363334" transform="translate(1092,1147)"/>
<path d="M0 0 C1.98 0.99 1.98 0.99 4 2 C3.34 3.65 2.68 5.3 2 7 C0 5 0 5 -0.125 2.375 C-0.08375 1.59125 -0.0425 0.8075 0 0 Z " fill="#2B2829" transform="translate(1113,860)"/>
<path d="M0 0 C0.99 1.32 1.98 2.64 3 4 C2.01 4.99 1.02 5.98 0 7 C-0.66 5.68 -1.32 4.36 -2 3 C-1.34 2.01 -0.68 1.02 0 0 Z " fill="#2C2829" transform="translate(701,825)"/>
<path d="M0 0 C2.4375 0.1875 2.4375 0.1875 5 1 C6.3125 3.0625 6.3125 3.0625 7 5 C1.25 3.25 1.25 3.25 -1 1 C-0.67 0.67 -0.34 0.34 0 0 Z " fill="#312E2F" transform="translate(1283,763)"/>
<path d="M0 0 C0.66 0.33 1.32 0.66 2 1 C2 1.99 2 2.98 2 4 C-1.75 5.125 -1.75 5.125 -4 4 C-4 3.34 -4 2.68 -4 2 C-2.125 0.9375 -2.125 0.9375 0 0 Z " fill="#2A2527" transform="translate(805,753)"/>
<path d="M0 0 C1.98 0.66 3.96 1.32 6 2 C4.02 2.99 4.02 2.99 2 4 C2 4.66 2 5.32 2 6 C1.34 6 0.68 6 0 6 C0 4.02 0 2.04 0 0 Z " fill="#2C2829" transform="translate(1018,703)"/>
<path d="M0 0 C0.99 0 1.98 0 3 0 C2.625 2.4375 2.625 2.4375 2 5 C1.01 5.495 1.01 5.495 0 6 C0 5.01 0 4.02 0 3 C-0.66 2.67 -1.32 2.34 -2 2 C-1.34 1.34 -0.68 0.68 0 0 Z " fill="#302D2D" transform="translate(934,416)"/>
</svg>
