<?xml version="1.0" encoding="utf-8"?>
<!-- Generator: Adobe Illustrator 24.3.0, SVG Export Plug-In . SVG Version: 6.00 Build 0)  -->
<svg version="1.0" id="Ebene_1" xmlns="http://www.w3.org/2000/svg" xmlns:xlink="http://www.w3.org/1999/xlink" x="0px" y="0px"
	 viewBox="0 0 608 432" style="enable-background:new 0 0 608 432;" xml:space="preserve">
<style type="text/css">
	.st0{fill-rule:evenodd;clip-rule:evenodd;fill:#221E1F;}
</style>
<path class="st0" d="M121.94,229.15H96.38v18.04c0,8.61,8.52,9.08,9.48,9.08v1.3H65.77v-1.3c0.96,0,9.48-0.47,9.48-9.08v-54.24
	c0-8.61-8.52-9.08-9.48-9.08v-1.3h56.17c17.89,0,26.4,11.68,26.4,23.35C148.35,217.48,139.83,229.15,121.94,229.15z M111.98,187.65
	H96.38v36.44h15.61c11.52,0,16.92-8.48,16.92-18.16C128.9,196.25,123.51,187.65,111.98,187.65z M223.24,257.57l-34.93-28.42v18.04
	c0,8.61,8.52,9.08,9.48,9.08v1.3h-39.97v-1.3c0.96,0,9.48-0.47,9.48-9.08v-54.24c0-8.61-8.52-9.08-9.48-9.08v-1.3h56.18
	c17.88,0,26.28,11.68,26.28,23.35c0,11.56-8.4,23.23-26.28,23.23h-17.52c3.84,4.01,11.88,5.66,19.2,5.66c3.23,0,6.48-0.48,9.24-1.18
	l28.44,22.87v1.06H223.24z M204.04,187.65h-15.73v36.44h15.73c11.4,0,16.93-8.48,16.93-18.16
	C220.97,196.25,215.44,187.65,204.04,187.65z M315.43,257.57v-1.3c3.96,0,5.64-1.18,5.64-3.77c0-1.18-0.48-2.71-1.32-4.24
	l-7.2-12.74h-31.2l-5.52,11.21c-0.72,1.53-1.32,3.3-1.32,5.07c0,2.71,1.2,4.48,4.56,4.48v1.3h-19.32v-1.3c4.56,0,7.44-3.06,10.2-8.6
	l23.16-46.35l-6.48-10.73c-3.35-5.54-6.84-6.72-10.32-6.72v-1.3h30.37l37.44,65.69c2.28,4.01,4.81,8.02,9.85,8.02v1.3H315.43z
	 M295.98,206.51l-12.24,23.94h25.93L295.98,206.51z M406.16,257.57h-44.17v-1.3c0.96,0,9.48-0.47,9.48-9.08v-54.24
	c0-8.61-8.52-9.08-9.48-9.08v-1.3h44.17c19.81,0,40.44,12.73,40.44,37.5C446.61,244.96,425.97,257.57,406.16,257.57z M421.16,206.27
	c0-13.56-8.65-18.63-18.24-18.63H392.6v64.85h10.32c9.6,0,18.24-5.07,18.24-18.63V206.27z M503.86,257.57v-1.3
	c3.95,0,5.64-1.18,5.64-3.77c0-1.18-0.48-2.71-1.32-4.24l-7.2-12.74h-31.2l-5.52,11.21c-0.72,1.53-1.32,3.3-1.32,5.07
	c0,2.71,1.2,4.48,4.56,4.48v1.3h-19.32v-1.3c4.56,0,7.44-3.06,10.2-8.6l23.16-46.35l-6.48-10.73c-3.36-5.54-6.85-6.72-10.32-6.72
	v-1.3h30.36l37.45,65.69c2.27,4.01,4.8,8.02,9.84,8.02v1.3H503.86z M484.41,206.51l-12.24,23.94h25.93L484.41,206.51z"/>
</svg>
