<?xml version="1.0" encoding="UTF-8"?>
<svg version="1.1" xmlns="http://www.w3.org/2000/svg" width="483" height="504">
<path d="M0 0 C159.39 0 318.78 0 483 0 C483 166.32 483 332.64 483 504 C323.61 504 164.22 504 0 504 C0 337.68 0 171.36 0 0 Z " fill="#FEFEFE" transform="translate(0,0)"/>
<path d="M0 0 C1.30950623 -0.0071553 2.61901245 -0.01431061 3.96820068 -0.02168274 C5.42282081 -0.02452296 6.87744119 -0.02723469 8.33206177 -0.02983093 C9.86131952 -0.03609617 11.39057576 -0.04274302 12.91983032 -0.04974365 C17.94411155 -0.07077506 22.96839305 -0.08114349 27.9927063 -0.09111023 C29.72208802 -0.09515778 31.45146959 -0.09927471 33.18085098 -0.10346031 C41.30361604 -0.12250802 49.42637202 -0.13674132 57.54915512 -0.14507228 C66.92870545 -0.15485098 76.30802019 -0.18118865 85.68748748 -0.22157317 C92.93597582 -0.251713 100.18439653 -0.26653903 107.43294632 -0.26985329 C111.76307065 -0.27220576 116.09294316 -0.28119189 120.42300034 -0.30631447 C124.49586837 -0.32956377 128.5683182 -0.3338413 132.64123535 -0.32355309 C134.13560501 -0.32305688 135.62999504 -0.32940228 137.12430191 -0.34310913 C139.16514837 -0.36078129 141.20617578 -0.35135186 143.24707031 -0.34057617 C144.38896254 -0.34296453 145.53085476 -0.34535288 146.70734978 -0.34781361 C150.44826531 0.26066251 152.09227544 1.48772646 154.7505188 4.14717102 C156.0005188 7.39717102 156.0005188 7.39717102 155.7505188 11.14717102 C153.8959194 14.26564556 151.33319305 16.62272131 148.7505188 19.14717102 C147.72126494 20.19608136 146.6940633 21.24700787 145.66848755 22.29951477 C140.61526989 27.45407996 135.51188895 32.45852915 129.99661255 37.11982727 C126.00234593 40.72508705 122.26334608 44.59705333 118.49685669 48.4379425 C117.91283081 49.03034729 117.32880493 49.62275208 116.7270813 50.23310852 C115.93938354 51.03820862 115.93938354 51.03820862 115.13577271 51.85957336 C112.4913858 54.31753891 110.4868074 54.27110396 106.99230957 54.26742554 C105.98827591 54.2688002 104.98424225 54.27017487 103.94978333 54.27159119 C102.84423599 54.26799591 101.73868866 54.26440063 100.59963989 54.26069641 C99.43867294 54.26084244 98.27770599 54.26098846 97.08155823 54.26113892 C93.2290055 54.26044005 89.37650062 54.25264883 85.5239563 54.24482727 C82.8588045 54.242963 80.19365539 54.24148997 77.52850342 54.24053955 C71.22097795 54.23742847 64.91346976 54.22921808 58.60595191 54.21919006 C50.72185252 54.20692695 42.83775034 54.20144468 34.9536438 54.19599915 C20.88592199 54.18625255 6.81823791 54.1662215 -7.2494812 54.14717102 C-7.2494812 80.21717102 -7.2494812 106.28717102 -7.2494812 133.14717102 C16.87909458 132.94933549 16.87909458 132.94933549 41.0071106 132.69673157 C45.68179321 132.67414856 45.68179321 132.67414856 47.87266541 132.66995239 C49.39751994 132.66229193 50.92234482 132.64474199 52.44700623 132.61929321 C54.76184395 132.58259851 57.07483738 132.57764346 59.3899231 132.57954407 C60.69342209 132.56844101 61.99692108 132.55733795 63.33992004 132.54589844 C67.64054853 133.30407909 69.10008178 134.74207884 71.7505188 138.14717102 C72.45418659 141.5959383 72.62494095 143.79677031 70.66018677 146.83100891 C69.08799627 148.63937334 67.42888732 150.2818246 65.6880188 151.92842102 C65.06330688 152.54559998 64.43859497 153.16277893 63.79495239 153.79866028 C61.79599546 155.76516338 59.77385319 157.70579204 57.7505188 159.64717102 C56.41954469 160.95158395 55.09010032 162.2575597 53.76223755 163.56513977 C42.03748324 175.0631521 42.03748324 175.0631521 36.39920044 179.70137024 C34.70139241 181.10774498 34.70139241 181.10774498 33.34988403 182.87812805 C30.42018109 186.21377992 28.39630431 187.06824992 23.92288208 187.61494446 C19.21458472 187.81174655 14.52070822 187.67099747 9.8130188 187.52217102 C8.15877028 187.49204371 6.50446912 187.46467276 4.85012817 187.44013977 C0.81561678 187.37433655 -3.21634988 187.27097434 -7.2494812 187.14717102 C-7.22591553 188.75604187 -7.22591553 188.75604187 -7.20187378 190.39741516 C-7.14677398 194.45104694 -7.11284619 198.50464711 -7.08468628 202.55854797 C-7.06977907 204.29916485 -7.04944612 206.0397454 -7.02316284 207.78022766 C-6.81700905 221.80272798 -7.37962896 235.443216 -13.4369812 248.39717102 C-13.73813843 249.05991028 -14.03929565 249.72264954 -14.34957886 250.4054718 C-17.25131532 256.55619928 -20.90277969 261.91653207 -25.2494812 267.14717102 C-26.31682495 268.44074524 -26.31682495 268.44074524 -27.4057312 269.76045227 C-34.28239398 277.73883391 -41.4002373 283.86366733 -50.9369812 288.39717102 C-57.1355692 291.58356462 -59.54302274 294.97746162 -62.65963745 301.09638977 C-72.32885539 319.65083501 -91.01900484 330.7239202 -110.1635437 337.27217102 C-125.04031601 341.49039507 -144.57467377 341.01777949 -159.2494812 336.14717102 C-160.52371948 335.72951477 -160.52371948 335.72951477 -161.82369995 335.30342102 C-165.54932617 333.79496503 -167.05139089 332.59502737 -168.6869812 328.89717102 C-167.7458614 320.83042985 -159.96418666 315.87427732 -154.22140503 310.71943665 C-150.09517609 306.97302073 -146.1698747 303.06180781 -142.2807312 299.07295227 C-141.20709914 297.97723246 -140.13344989 296.88152949 -139.05978394 295.7858429 C-137.43801904 294.12956718 -135.82137415 292.46947849 -134.21801758 290.79536438 C-132.69920543 289.21004333 -131.16538965 287.64061545 -129.62838745 286.07295227 C-128.7370813 285.14909729 -127.84577515 284.22524231 -126.92745972 283.27339172 C-123.89666437 280.86704687 -122.07846651 280.3433523 -118.2494812 280.14717102 C-115.35494995 280.88935852 -115.35494995 280.88935852 -112.4369812 282.02217102 C-107.25598634 283.8657152 -102.73224331 284.94764012 -97.2494812 285.14717102 C-96.1666687 285.18713196 -95.0838562 285.2270929 -93.9682312 285.26826477 C-86.45621164 285.40707383 -79.57799826 284.7159317 -72.2494812 283.14717102 C-70.25024709 282.80927448 -68.25031972 282.47543359 -66.2494812 282.14717102 C-62.53426981 271.24806868 -62.83432095 260.53688807 -62.88058472 249.15962219 C-62.8781133 247.05100815 -62.87427143 244.94239534 -62.86917114 242.83378601 C-62.86086866 238.31423009 -62.86161023 233.79480033 -62.86935616 229.27524376 C-62.88098356 222.12705069 -62.86874099 214.97901846 -62.85273743 207.83084106 C-62.81662604 190.08530121 -62.81031658 172.33976579 -62.81283569 154.5941925 C-62.81454665 140.78268253 -62.80744959 126.97130473 -62.77285713 113.15983182 C-62.75606491 106.05487992 -62.75785532 98.95025069 -62.77367985 91.84530008 C-62.77947368 87.42871128 -62.76874312 83.01227585 -62.75343323 78.59571457 C-62.74970539 76.5490851 -62.75281967 74.50242991 -62.76330376 72.4558239 C-62.77667011 69.66030623 -62.76546908 66.86590734 -62.74827576 64.07043457 C-62.75808253 63.26245601 -62.76788931 62.45447746 -62.77799326 61.6220147 C-62.69835742 55.35347652 -60.99169106 51.07306958 -56.6166687 46.40498352 C-51.66324645 42.64453207 -49.50788642 42.02416937 -43.2729187 42.04951477 C-42.24504745 42.05163719 -42.24504745 42.05163719 -41.19641113 42.05380249 C-39.00572359 42.05940427 -36.8151379 42.07195696 -34.6244812 42.08467102 C-33.14010768 42.0896858 -31.65573255 42.09424874 -30.1713562 42.0983429 C-26.53069805 42.10937425 -22.89009956 42.12664003 -19.2494812 42.14717102 C-19.27042847 41.30533264 -19.29137573 40.46349426 -19.31295776 39.59614563 C-19.38151082 36.4446575 -19.43146383 33.29355196 -19.46920776 30.14155579 C-19.48920748 28.78270389 -19.51641696 27.42393678 -19.55123901 26.06538391 C-19.77512192 17.10019061 -19.87158066 11.18740662 -13.65182495 4.40498352 C-8.91719996 0.74354019 -5.89974404 0.02209412 0 0 Z " fill="#050505" transform="translate(236.24948120117188,89.85282897949219)"/>
<path d="M0 0 C1.19893387 -0.00412399 2.39786774 -0.00824799 3.63313293 -0.01249695 C4.95015198 -0.00171112 6.26717102 0.00907471 7.62409973 0.02018738 C9.02353904 0.0210335 10.42297968 0.02055879 11.82241821 0.01885986 C15.62388854 0.01799791 19.4250758 0.03565584 23.22648025 0.05658174 C27.19830506 0.07531529 31.17013611 0.07709635 35.14199829 0.08065796 C42.66431253 0.08998821 50.18649622 0.1146152 57.70875293 0.14470643 C66.27212362 0.17821998 74.83550049 0.19472877 83.39892042 0.20979273 C101.01547677 0.24116395 118.63191155 0.29394344 136.24836731 0.36076355 C135.29379326 1.48347321 134.33793249 2.60508893 133.38153076 3.72624207 C132.84937423 4.35095901 132.31721769 4.97567596 131.7689352 5.61932373 C130.00974705 7.63404488 128.15200876 9.48138831 126.18977356 11.29826355 C125.47369934 11.96599792 124.75762512 12.6337323 124.01985168 13.32170105 C123.29088684 13.99459167 122.561922 14.6674823 121.81086731 15.36076355 C120.35281766 16.71383363 118.89577604 18.0679908 117.43977356 19.42326355 C116.80241272 20.01236511 116.16505188 20.60146667 115.50837708 21.2084198 C113.30720335 23.2034565 113.30720335 23.2034565 111.89548302 25.07426548 C109.4574065 27.96391908 107.50527308 30.03700776 103.77427197 30.99804497 C100.79404382 31.22100101 97.88489003 31.22704391 94.89704895 31.15544128 C93.77436615 31.15646347 92.65168335 31.15748566 91.49497986 31.15853882 C87.79851797 31.15367707 84.10455183 31.09929576 80.40852356 31.0443573 C77.84021351 31.03129626 75.27188599 31.02133448 72.70355225 31.01434326 C66.64364369 30.99038303 60.58475913 30.93526529 54.52523559 30.86489683 C47.62327515 30.78649528 40.72127087 30.74812759 33.81897557 30.71302879 C19.62829594 30.63997579 5.43836329 30.51695172 -8.75163269 30.36076355 C-8.83853523 25.92338643 -8.89199195 21.48622721 -8.93913269 17.04826355 C-8.96426941 15.78562683 -8.98940613 14.52299011 -9.01530457 13.22209167 C-9.02497253 12.01359558 -9.0346405 10.80509949 -9.04460144 9.5599823 C-9.06816711 7.88681946 -9.06816711 7.88681946 -9.09220886 6.17985535 C-8.75163269 3.36076355 -8.75163269 3.36076355 -7.59279919 1.4958601 C-4.98910336 -0.10934299 -3.05139022 -0.00807959 0 0 Z " fill="#FAFAFA" transform="translate(237.7516326904297,101.63923645019531)"/>
<path d="M0 0 C9.24 0 18.48 0 28 0 C28 39.93 28 79.86 28 121 C17.77 121 7.54 121 -3 121 C-3.06768898 105.66653743 -3.12296541 90.3331421 -3.15543652 74.99956799 C-3.17091335 67.8801101 -3.19201832 60.76075155 -3.22631836 53.64135742 C-3.2593839 46.77493151 -3.27683723 39.90860903 -3.28463173 33.04210854 C-3.29018873 30.41815882 -3.30103969 27.79421496 -3.31719017 25.17030907 C-3.33886421 21.50428269 -3.34197108 17.83868722 -3.34057617 14.17260742 C-3.351362 13.0800061 -3.36214783 11.98740479 -3.3732605 10.86169434 C-3.36913651 9.86470016 -3.36501251 8.86770599 -3.36076355 7.84049988 C-3.36352893 6.97309268 -3.36629431 6.10568548 -3.36914349 5.21199322 C-3 3 -3 3 0 0 Z " fill="#FBFBFB" transform="translate(189,144)"/>
<path d="M0 0 C10.23 0 20.46 0 31 0 C31.06938553 5.33497646 31.12896022 10.66834749 31.16479492 16.00341797 C31.17975449 17.81304265 31.20012957 19.6226319 31.22631836 21.43212891 C31.37095358 31.69272156 31.36312384 41.16617251 28 51 C27.62359375 52.12535156 27.2471875 53.25070312 26.859375 54.41015625 C21.30105443 67.6992396 13.22844213 79.90098822 1 88 C0.34 88 -0.32 88 -1 88 C-0.67 58.96 -0.34 29.92 0 0 Z " fill="#F8F8F8" transform="translate(186,276)"/>
<path d="M0 0 C3.125 0.8203125 3.125 0.8203125 5.953125 1.9296875 C13.26144258 4.78266709 21.09262636 4.18986671 28.8125 4.1328125 C29.97330078 4.12830078 31.13410156 4.12378906 32.33007812 4.11914062 C35.17843934 4.10741897 38.02669222 4.0910101 40.875 4.0703125 C34.27978714 17.66236978 20.24141244 26.38735325 6.43359375 31.29296875 C-1.8269865 33.91492767 -9.35918691 35.2505998 -18 35.2578125 C-18.76441406 35.27005859 -19.52882813 35.28230469 -20.31640625 35.29492188 C-25.576002 35.30831643 -30.06946359 34.52709008 -35.125 33.0703125 C-33.53084497 29.15821942 -30.98606668 26.69813164 -28 23.7578125 C-27.505 23.26925781 -27.01 22.78070313 -26.5 22.27734375 C-23.18441419 19.03047475 -19.78138261 15.93716481 -16.203125 12.984375 C-13.95118722 10.9899106 -13.95118722 10.9899106 -11.609375 8.09375 C-4.79751713 0.10794414 -4.79751713 0.10794414 0 0 Z " fill="#FAFAFA" transform="translate(120.125,382.9296875)"/>
<path d="M0 0 C20.13 0 40.26 0 61 0 C54.23812369 7.88885569 54.23812369 7.88885569 51.4140625 10.71875 C50.79273438 11.34136719 50.17140625 11.96398437 49.53125 12.60546875 C48.9021875 13.23066406 48.273125 13.85585937 47.625 14.5 C47.00367188 15.12519531 46.38234375 15.75039062 45.7421875 16.39453125 C44.47860461 17.65550343 43.19936268 18.90097073 41.90527344 20.13061523 C39.97327593 21.9642739 39.97327593 21.9642739 38.32128906 24.01196289 C34.67591403 27.9933613 31.79650939 29.36944458 26.33584595 29.6545105 C22.7170802 29.70422269 19.11528405 29.58469824 15.5 29.4375 C13.99486439 29.40233479 12.48964952 29.37040494 10.984375 29.34179688 C7.31933964 29.27116018 3.6654377 29.13425731 0 29 C0 19.43 0 9.86 0 0 Z " fill="#FDFDFD" transform="translate(229,235)"/>
</svg>
